<svg width="576" height="576" viewBox="0 0 576 576" fill="none" xmlns="http://www.w3.org/2000/svg">
<path d="M255.916 48.0366C255.916 41.0366 260.416 34.8366 267.116 32.7366C273.816 30.6366 281.016 33.1366 285.016 38.8366L509.016 358.837C512.416 363.737 512.816 370.137 510.116 375.437C507.416 380.737 501.916 384.037 495.916 384.037H271.916C263.116 384.037 255.916 376.837 255.916 368.037V48.0366Z" fill="#5DA1D4"/>
<path d="M212.016 128.537C219.016 130.437 223.916 136.737 223.916 144.037V368.037C223.916 376.837 216.716 384.037 207.916 384.037H79.9164C74.2164 384.037 68.9164 381.037 66.1164 376.037C63.3164 371.037 63.2164 365.037 66.0164 360.037L194.016 136.037C197.616 129.737 205.016 126.637 212.016 128.537Z" fill="#F3D24F"/>
<path d="M5.61639 436.337C2.71639 426.137 10.4164 416.037 21.0164 416.037H554.816C565.416 416.037 573.116 426.137 570.216 436.337L566.216 450.637C550.616 505.937 500.316 544.037 442.916 544.037H132.916C75.5164 544.037 25.2164 505.937 9.61639 450.737L5.61639 436.437V436.337Z" fill="#0D7988"/>
<path d="M21.0164 416.037C10.4164 416.037 2.71639 426.137 5.61639 436.337V436.437L9.61639 450.737C25.2164 505.937 75.5164 544.037 132.916 544.037H442.916C500.316 544.037 550.616 505.937 566.216 450.637L570.216 436.337C573.116 426.137 565.416 416.037 554.816 416.037H21.0164Z" fill="#0D7988"/>
</svg>
